PathFileType	3	(X/Y/Z)	F:\ViconData\AntennenMessung\Messung1\Session1\ID17.trc
DataRate	CameraRate	NumFrames	NumMarkers	Units	OrigDataRate	OrigDataStartFrame	OrigNumFrames
120.0	120.0	5	70	mm	120.0	771	880	
Frame#	Time	Ashort			Along			Atop			A4			Bshort			Blong			Btop			B4			Cshort			Clong			Ctop			C4			Dshort			Dlong			Dtop			D4			Eshort			Elong			Etop			E4			Fshort			Flong			Ftop			F4			Gshort			Glong			Gtop			G4			Hshort			Hlong			Htop			H4			I1			I2			I3			I4			I5			WandAshort			WandAlong			WandAtop			WandA4			WandA15			WandBshort			WandB4			WandB5			WandBtop			WandBlong			WandCshort			WandClong			WandCtop			WandC4			WandC5			Acenter			Aantenna			Bcenter			Bantenna			Ccenter			Cantenna			Dcenter			Dantenna			Ecenter			Eantenna			Fcenter			Fantenna			Gcenter			Gantenna			Hcenter			Hantenna			Icenter			Iantenna			
		X1	Y1	Z1	X2	Y2	Z2	X3	Y3	Z3	X4	Y4	Z4	X5	Y5	Z5	X6	Y6	Z6	X7	Y7	Z7	X8	Y8	Z8	X9	Y9	Z9	X10	Y10	Z10	X11	Y11	Z11	X12	Y12	Z12	X13	Y13	Z13	X14	Y14	Z14	X15	Y15	Z15	X16	Y16	Z16	X17	Y17	Z17	X18	Y18	Z18	X19	Y19	Z19	X20	Y20	Z20	X21	Y21	Z21	X22	Y22	Z22	X23	Y23	Z23	X24	Y24	Z24	X25	Y25	Z25	X26	Y26	Z26	X27	Y27	Z27	X28	Y28	Z28	X29	Y29	Z29	X30	Y30	Z30	X31	Y31	Z31	X32	Y32	Z32	X33	Y33	Z33	X34	Y34	Z34	X35	Y35	Z35	X36	Y36	Z36	X37	Y37	Z37	X38	Y38	Z38	X39	Y39	Z39	X40	Y40	Z40	X41	Y41	Z41	X42	Y42	Z42	X43	Y43	Z43	X44	Y44	Z44	X45	Y45	Z45	X46	Y46	Z46	X47	Y47	Z47	X48	Y48	Z48	X49	Y49	Z49	X50	Y50	Z50	X51	Y51	Z51	X52	Y52	Z52	X53	Y53	Z53	X54	Y54	Z54	X55	Y55	Z55	X56	Y56	Z56	X57	Y57	Z57	X58	Y58	Z58	X59	Y59	Z59	X60	Y60	Z60	X61	Y61	Z61	X62	Y62	Z62	X63	Y63	Z63	X64	Y64	Z64	X65	Y65	Z65	X66	Y66	Z66	X67	Y67	Z67	X68	Y68	Z68	X69	Y69	Z69	X70	Y70	Z70	
771	6.4166667	-1038.2546	214.42953	-1644.165	-1109.4078	204.04771	-1599.3052	-1063.7385	173.06798	-1625.7145	-1054.2321	262.18491	-1634.9572	-1353.0039	234.83206	1003.6124	-1281.3707	227.28175	1052.3494	-1322.8795	193.6833	1021.0765	-1284.7081	287.79153	1052.8311	813.88647	187.67123	1209.4385	892.15027	178.49168	1179.1763	844.44318	145.48288	1198.259	860.95593	292.52567	1168.3673	1115.7122	209.59245	-1401.616	1056.1852	193.9066	-1460.2582	1095.0316	162.30722	-1423.972	1069.8107	238.65463	-1425.8109	-1204.6832	1686.0632	-1562.9308	-1129.1882	1688.3903	-1606.531	-1173.1747	1724.4135	-1581.9674	-1134.0732	1580.9449	-1603.8274	-1239.4828	1698.9371	1119.4415	-1309.2366	1698.5818	1071.8546	-1270.3296	1736.162	1096.8552	-1245.5211	1592.6982	1110.6628	988.88861	1664.2332	1162.2019	955.79846	1702.3373	1181.0894	922.86597	1661.9736	1215.0649	939.76495	1659.4062	1159.912	999.01935	1668.4227	-1579.4535	1058.8589	1670.1279	-1518.6213	1024.947	1707.998	-1551.1044	1059.2566	1672.1088	-1585.4441	-184.53304	167.27008	-294.00461	-175.22571	174.70515	-377.54138	-180.31789	132.38933	-335.11133	-211.84236	170.25725	-333.16678	-133.15645	168.86884	-326.19189																																														-1068.6691	209.99181	-1624.9895	-1073.83	248.64137	-1624.2308	-1321.5634	231.51814	1025.0034	-1320.2147	270.28656	1029.0272	848.12421	183.65547	1196.1997	851.86224	222.41956	1194.1086	1088.6699	202.4666	-1428.2561	1082.6016	240.77422	-1432.3429	-1171.948	1687.0721	-1581.8361	-1170.6675	1648.0935	-1581.6992	-1270.9175	1698.777	1097.9961	-1271.5305	1659.7999	1099.1857	953.59399	1704.8756	1182.3477	972.89471	1731.8232	1161.7974	1026.4862	1669.2053	-1551.5309	1028.0322	1630.2384	-1551.9592	-180.33208	170.62596	-331.70969	-180.3465	209.47253	-328.25381
772	6.425	-1038.2397	214.50174	-1644.2029	-1109.3932	204.08945	-1599.325	-1063.7052	173.08353	-1625.7577	-1054.2003	262.18732	-1634.9468	-1352.9918	234.81961	1003.6431	-1281.3857	227.22365	1052.338	-1322.8231	193.68304	1021.0321	-1284.7271	287.79291	1052.8951	814.03094	187.64264	1209.5067	892.30414	178.41168	1179.2222	844.37219	145.52531	1198.2528	860.95148	292.55536	1168.3829	1115.7072	209.54984	-1401.6157	1056.25	194.02205	-1460.3108	1095.1589	162.31587	-1423.965	1069.7856	238.67731	-1425.8152	-1204.6616	1686.066	-1562.9214	-1129.1522	1688.2699	-1606.0259	-1173.1724	1724.3925	-1581.9675	-1134.0748	1580.9478	-1603.8353	-1239.5105	1698.9711	1119.4497	-1309.2163	1698.6161	1071.8715	-1270.3508	1736.1694	1096.8564	-1245.4923	1592.6376	1110.6556	988.89227	1664.2557	1162.2046	955.81342	1702.3262	1181.093	922.81787	1662.0255	1215.1534	939.82013	1659.4607	1159.8715	999.03821	1668.3899	-1579.4092	1058.7267	1669.9432	-1518.64	1024.9468	1707.9965	-1551.1006	1059.2365	1672.1057	-1585.4446	-184.53311	167.24005	-294.01562	-175.23755	174.71109	-377.54153	-180.15562	132.50253	-335.34171	-211.83826	170.2722	-333.14273	-133.13167	168.91504	-326.20245																																														-1068.6509	210.05148	-1625.0219	-1073.8213	248.69957	-1624.2526	-1321.5353	231.4827	1025.0347	-1320.2147	270.24362	1029.139	848.11682	183.62279	1196.3185	851.92688	222.38632	1194.3506	1088.8086	202.52502	-1428.1694	1082.7567	240.8437	-1432.1764	-1171.8887	1687.0225	-1581.6296	-1170.55	1648.047	-1581.2775	-1270.9393	1698.8109	1097.9976	-1271.5536	1659.8339	1099.1881	953.52612	1704.9585	1182.3989	972.80487	1731.9116	1161.8356	1026.4091	1669.1022	-1551.5426	1027.874	1630.1322	-1551.9856	-180.31158	170.633	-331.94843	-180.47047	209.47914	-328.49149
773	6.4333333	-1038.2318	214.45291	-1644.186	-1109.3853	204.10764	-1599.3497	-1063.7294	173.05708	-1625.7428	-1054.1917	262.21353	-1634.9828	-1352.9847	234.77989	1003.8344	-1281.3805	227.2789	1052.3356	-1322.7772	193.78925	1020.9811	-1284.6842	287.82578	1052.7814	813.99487	187.63591	1209.4896	892.37231	178.4847	1179.166	844.3783	145.59213	1198.1781	860.92609	292.50305	1168.2762	1115.7172	209.52789	-1401.6116	1056.2131	193.85587	-1460.2296	1095.1005	162.38274	-1423.9155	1069.8087	238.73816	-1425.8568	-1204.696	1686.0586	-1562.9186	-1129.1581	1688.2675	-1606.0245	-1173.1827	1724.4111	-1581.9647	-1134.0756	1580.9546	-1603.8489	-1239.5155	1698.9774	1119.4536	-1309.2579	1698.6345	1071.8829	-1270.3452	1736.1748	1096.8594	-1245.3401	1592.519	1110.6311	988.90723	1664.2649	1162.2273	955.76917	1702.3198	1181.0348	922.75391	1661.9756	1215.0563	939.75415	1659.3947	1159.9137	999.01709	1668.4097	-1579.4363	1058.7491	1669.9663	-1518.6433	1024.946	1708.0016	-1551.1071	1059.2349	1672.0903	-1585.4288	-184.52257	167.26636	-293.98233	-175.2253	174.72214	-377.5459	-180.30716	132.39458	-335.10184	-211.85098	170.26442	-333.14832	-133.10652	168.92783	-326.17789																																														-1068.649	210.03043	-1625.0189	-1073.792	248.68242	-1624.2623	-1321.6086	231.49304	1025.087	-1320.4076	270.24542	1029.3071	848.09448	183.65448	1196.2966	851.87964	222.42305	1194.3804	1088.7512	202.42564	-1428.1759	1082.677	240.73349	-1432.252	-1171.9003	1687.0176	-1581.6334	-1170.5637	1648.042	-1581.2883	-1270.9486	1698.8229	1098.0134	-1271.5784	1659.8466	1099.2177	953.49951	1704.9263	1182.323	972.79553	1731.8822	1161.7794	1026.4135	1669.1237	-1551.5532	1027.8844	1630.1539	-1552.0006	-180.32693	170.63095	-331.69247	-180.34703	209.47682	-328.22876
774	6.4416667	-1038.2261	214.52975	-1644.2344	-1109.4231	204.00839	-1599.3301	-1063.7168	173.09125	-1625.6941	-1054.1724	262.2355	-1635.0092	-1353.0167	234.76378	1003.844	-1281.3668	227.29887	1052.3335	-1322.808	193.63022	1021.0065	-1284.5721	287.84021	1052.7384	814.0293	187.58501	1209.4324	892.11279	178.40067	1179.2573	844.36298	145.62958	1198.2482	860.93408	292.56647	1168.3716	1115.7151	209.53621	-1401.62	1056.2207	194.007	-1460.2804	1095.1412	162.42346	-1423.9683	1069.8037	238.62593	-1425.7993	-1204.6554	1686.064	-1562.937	-1129.1556	1688.2589	-1605.9985	-1173.1807	1724.4037	-1581.9674	-1134.0858	1580.9468	-1603.8181	-1239.4706	1698.9347	1119.4387	-1309.2446	1698.6295	1071.869	-1270.2928	1736.115	1096.8335	-1245.3597	1592.5413	1110.6561	988.90814	1664.2556	1162.2328	955.82953	1702.3523	1181.088	922.77356	1662.0042	1215.0703	939.77148	1659.4208	1159.9005	999.01202	1668.4282	-1579.4335	1058.8508	1670.1351	-1518.6211	1024.9519	1707.9973	-1551.0929	1059.2426	1672.1227	-1585.4324	-184.53996	167.24261	-294.01105	-175.23288	174.73265	-377.54657	-180.31258	132.39394	-335.10901	-211.82919	170.24353	-333.15057	-133.11159	168.90292	-326.17984																																														-1068.7325	210.02155	-1624.9937	-1073.9803	248.65991	-1624.2611	-1321.6255	231.49326	1025.088	-1320.4152	270.24991	1029.2662	848.06592	183.58153	1196.2789	851.84821	222.34555	1194.2676	1088.8041	202.51192	-1428.1537	1082.7468	240.83038	-1432.1543	-1171.8964	1687.0162	-1581.6212	-1170.5575	1648.0409	-1581.2603	-1270.9224	1698.797	1097.996	-1271.5796	1659.8215	1099.2102	953.58252	1704.9399	1182.3687	972.91693	1731.8849	1161.8466	1026.4854	1669.2118	-1551.5131	1028.026	1630.2445	-1551.9352	-180.34254	170.62054	-331.68478	-180.37302	209.46501	-328.20529
775	6.45	-1038.2148	214.46898	-1644.1886	-1109.3771	203.96935	-1599.2714	-1063.7942	173.0934	-1625.6713	-1054.1746	262.15546	-1634.9407	-1352.9355	234.87781	1003.6146	-1281.2726	227.12541	1052.3555	-1322.9183	193.50311	1021.0943	-1284.723	287.80988	1052.8269	813.97125	187.61942	1209.446	892.22046	178.44859	1179.1814	844.41907	145.54594	1198.3121	860.97058	292.57248	1168.4391	1115.7042	209.52592	-1401.6083	1056.1116	193.87947	-1460.3296	1095.151	162.43991	-1423.9559	1069.7957	238.70154	-1425.8696	-1204.5083	1685.9208	-1563.2292	-1129.1731	1688.2557	-1605.9923	-1173.178	1724.3914	-1581.9626	-1134.078	1580.9589	-1603.8522	-1239.5061	1698.9612	1119.443	-1309.2493	1698.588	1071.8618	-1270.3414	1736.1801	1096.8649	-1245.4788	1592.6445	1110.6608	988.84692	1664.2031	1162.2289	955.82898	1702.3267	1181.1001	922.85419	1661.9812	1215.061	939.76691	1659.4325	1159.8999	999.03357	1668.4127	-1579.4427	1058.8641	1670.1155	-1518.6183	1024.9546	1707.998	-1551.087	1059.2501	1672.1014	-1585.4275	-184.56172	167.26855	-294.04089	-175.2334	174.73825	-377.55237	-180.32794	132.40738	-335.1077	-211.83658	170.24443	-333.16824	-133.13824	168.89406	-326.1633																																														-1068.7548	209.96295	-1624.9119	-1073.9541	248.60661	-1624.1161	-1321.4751	231.47446	1025.012	-1320.0018	270.24081	1029.0117	848.08466	183.62132	1196.2518	851.81659	222.38565	1194.1544	1088.7731	202.45497	-1428.1455	1082.667	240.7646	-1432.1566	-1171.8923	1686.9318	-1581.7432	-1170.5547	1647.9553	-1581.5149	-1270.9224	1698.793	1098.0098	-1271.5281	1659.8159	1099.2034	953.64789	1704.8448	1182.3467	972.98853	1731.7662	1161.7997	1026.4995	1669.1942	-1551.5204	1028.051	1630.2275	-1551.9557	-180.35609	170.63622	-331.69141	-180.38472	209.4814	-328.22009
